<svg width="22" height="20" viewBox="0 0 22 20" fill="none" xmlns="http://www.w3.org/2000/svg">
<path fill-rule="evenodd" clip-rule="evenodd" d="M13.9888 1.01745L13.2752 0.890137L12.9322 1.52877C12.8485 1.68469 12.7598 1.86142 12.6735 2.04284C11.5515 1.92291 10.4348 1.92244 9.32438 2.04201C9.236 1.85885 9.14548 1.68119 9.06114 1.52552L8.71721 0.890756L8.00646 1.01741C6.46732 1.29169 4.99544 1.7751 3.62116 2.43909L3.36729 2.56175L3.21489 2.79896C0.475682 7.06233 -0.274308 11.2477 0.0976702 15.3539L0.137141 15.7896L0.483918 16.0563C2.31249 17.4627 4.09403 18.3228 5.84413 18.8844L6.54346 19.1088L6.96683 18.5086C7.21561 18.156 7.45431 17.7892 7.67713 17.407C8.91436 17.9588 9.94579 18.2878 11.0184 18.2869C12.0876 18.2859 13.1089 17.9572 14.3267 17.4086C14.5443 17.7879 14.7791 18.1562 15.0309 18.5118L15.4544 19.1098L16.1523 18.8861C17.9039 18.3245 19.6873 17.4645 21.5164 16.0559L21.8622 15.7896L21.9021 15.3549C22.3388 10.5917 21.1503 6.44594 18.7741 2.79113L18.6217 2.55672L18.3699 2.43535C16.9958 1.77316 15.5258 1.29163 13.9888 1.01745ZM11.0166 16.2869C10.2522 16.2875 9.42445 16.0259 7.96253 15.3368L7.95477 15.3289C7.88822 15.2737 7.75002 15.1856 7.68008 15.1521C7.61826 15.1278 7.50064 15.094 7.44563 15.0834C7.41079 15.0785 7.35362 15.0737 7.31104 15.0715C7.29348 15.0674 7.27335 15.0631 7.25138 15.0591C7.22791 15.055 7.19354 15.0496 7.15201 15.0462C7.11456 15.0431 7.04529 15.0394 6.95949 15.0486C6.91508 15.0534 6.8539 15.0629 6.78331 15.0836C6.71381 15.104 6.61754 15.1404 6.51515 15.2077C6.40946 15.2771 6.2939 15.382 6.20419 15.5327C6.11285 15.6862 6.07069 15.8498 6.0642 16.0024C6.06142 16.0677 6.06524 16.1281 6.07279 16.1826C5.96948 16.3691 5.86063 16.5529 5.74683 16.7344C4.53978 16.2833 3.31439 15.6536 2.05448 14.7342C1.81491 11.2536 2.48668 7.74057 4.74563 4.11993C5.66367 3.69738 6.6283 3.36572 7.62846 3.13523C7.68774 3.26474 7.7429 3.39156 7.78914 3.50595L8.08701 4.24284L8.87212 4.11895C10.2767 3.89731 11.6955 3.89687 13.1321 4.11939L13.9152 4.2407L14.2123 3.50595C14.2587 3.39107 14.313 3.26474 14.371 3.13626C15.3693 3.36656 16.3321 3.69708 17.2491 4.11823C19.2225 7.24707 20.2228 10.7335 19.9457 14.7343C18.6864 15.6543 17.4606 16.284 16.2528 16.7351C16.1414 16.5543 16.0345 16.3698 15.9321 16.182C15.9394 16.1306 15.9434 16.0738 15.9416 16.0125C15.9373 15.8629 15.8988 15.7001 15.8108 15.5455C15.724 15.3931 15.61 15.2853 15.5036 15.2129C15.4007 15.1429 15.3032 15.1047 15.2324 15.083C15.1606 15.0611 15.0983 15.0509 15.0531 15.0457C14.9657 15.0357 14.8951 15.0392 14.8571 15.0422C14.8149 15.0455 14.78 15.0508 14.7562 15.055C14.7327 15.0592 14.7112 15.0638 14.6928 15.0681C14.6393 15.0715 14.5645 15.0792 14.5189 15.0873C14.4468 15.1052 14.2933 15.1632 14.214 15.2055C14.1754 15.2311 14.1228 15.274 14.0703 15.3216C12.6089 16.0206 11.7847 16.2862 11.0166 16.2869ZM6.627 15.3187L6.63853 15.3107L6.74248 15.4469C6.72942 15.458 6.71646 15.4696 6.70364 15.4817L6.58967 15.3505L6.59987 15.3408L6.6131 15.3288L6.61694 15.326L6.627 15.3187ZM7.24144 16.1008L6.70364 15.4817C6.6304 15.551 6.56178 15.6368 6.50686 15.7408L6.50493 15.7445L7.24144 16.1008ZM7.58273 15.2288L7.24144 16.1008L6.74248 15.4469C6.7675 15.4256 6.79288 15.4061 6.81824 15.3884C6.92791 15.3119 7.03308 15.2711 7.10998 15.2487C7.18757 15.2261 7.25462 15.2169 7.3025 15.2127C7.3515 15.2085 7.39319 15.2086 7.42433 15.2098C7.45606 15.211 7.48325 15.2135 7.50451 15.2161C7.53604 15.2199 7.5627 15.2246 7.58273 15.2288ZM7.65317 15.2461L7.24144 16.1008L7.73411 15.3056L7.7224 15.2953C7.70466 15.28 7.68955 15.2681 7.679 15.2601L7.66951 15.253L7.65745 15.2474L7.65317 15.2461ZM7.65317 15.2461L7.65345 15.2456C7.63271 15.2361 7.61012 15.2264 7.58734 15.217L7.58273 15.2288L7.59957 15.2324C7.62133 15.2373 7.63901 15.2421 7.65125 15.2456L7.65317 15.2461ZM15.4094 15.3396L15.4121 15.3422L15.2978 15.4753C15.2873 15.4654 15.2766 15.4559 15.2659 15.4466L15.3717 15.3094L15.3743 15.3112L15.3881 15.321L15.3934 15.325L15.3976 15.3287L15.4094 15.3396ZM14.7641 16.097L15.2659 15.4466C15.2442 15.428 15.2222 15.4107 15.2001 15.3947C15.09 15.3152 14.9836 15.2724 14.9052 15.2486C14.8263 15.2247 14.758 15.2147 14.7092 15.2102C14.6592 15.2055 14.6167 15.2054 14.585 15.2065C14.5527 15.2075 14.525 15.21 14.5034 15.2126C14.4709 15.2164 14.4434 15.2213 14.423 15.2255L14.4185 15.214C14.4035 15.2212 14.3878 15.2291 14.3718 15.2374L14.3544 15.2422L14.3482 15.244L14.3505 15.2487C14.3348 15.2571 14.319 15.2658 14.3033 15.2746C14.2969 15.2798 14.2899 15.2856 14.2825 15.2921L14.2708 15.3023L14.7641 16.097ZM14.7641 16.097L15.2978 15.4753C15.3734 15.5461 15.4438 15.634 15.4995 15.7403L14.7641 16.097ZM14.7641 16.097L14.3505 15.2487L14.3718 15.2374C14.3818 15.2348 14.3936 15.2319 14.4068 15.2289L14.423 15.2255L14.7641 16.097ZM7.68052 7.65182C5.97447 7.65182 4.88407 9.2126 4.88407 10.7582C4.88407 12.3115 5.99833 13.863 7.68052 13.863C9.38168 13.863 10.4752 12.3113 10.477 10.765C10.4965 9.1934 9.37146 7.65182 7.68052 7.65182ZM14.3193 7.65182C12.6132 7.65182 11.5229 9.21263 11.5229 10.7582C11.5229 12.3115 12.6371 13.863 14.3193 13.863C16.0217 13.863 17.1122 12.3099 17.1157 10.7657C17.1356 9.19388 16.0105 7.65182 14.3193 7.65182ZM5.88422 10.7587C5.88422 11.9144 6.69366 12.8634 7.68067 12.8634C8.68498 12.8634 9.47866 11.9144 9.47711 10.7587C9.4944 9.6013 8.68498 8.65229 7.68067 8.65229C6.67638 8.65229 5.88422 9.60297 5.88422 10.7587ZM12.523 10.7587C12.523 11.9144 13.3324 12.8634 14.3195 12.8634C15.3237 12.8634 16.1159 11.9144 16.1159 10.7587C16.1332 9.6013 15.3237 8.65229 14.3195 8.65229C13.3151 8.65229 12.523 9.60297 12.523 10.7587Z" fill="black"/>
</svg>
