<svg width="20" height="20" viewBox="0 0 20 20" fill="none" xmlns="http://www.w3.org/2000/svg">
<path fill-rule="evenodd" clip-rule="evenodd" d="M12.8579 12.8628C10.6248 15.3111 6.8298 15.4856 4.38152 13.2525C1.93325 11.0194 1.75879 7.22445 3.99186 4.77618C6.22493 2.3279 10.0199 2.15344 12.4682 4.38651C14.9165 6.61959 15.0909 10.4146 12.8579 12.8628ZM13.5782 14.9398C10.5553 17.4916 6.0354 17.468 3.03375 14.7302C-0.230622 11.7527 -0.463233 6.69277 2.51419 3.4284C5.49162 0.164032 10.5516 -0.0685798 13.816 2.90885C16.8426 5.66944 17.263 10.2203 14.935 13.4703L19.5754 17.7028L18.2276 19.1805L13.5782 14.9398Z" fill="black"/>
</svg>
