<svg width="20" height="20" viewBox="0 0 20 20" fill="none" xmlns="http://www.w3.org/2000/svg">
<path d="M16.8925 3.24246C17.2839 3.13716 17.6665 3.00103 18.038 2.83464L16.6644 5.32131L18.1187 4.6396C17.903 4.87529 17.6743 5.09595 17.4332 5.30098L17.0688 5.61081L17.0813 6.08895C17.0834 6.17019 17.0845 6.25148 17.0845 6.334C17.0845 12.1866 13.0379 18 6.50678 18C4.9744 18 3.46663 17.6329 2.07787 16.9236C3.22027 16.8332 4.3597 16.4922 5.37275 15.9072L7.14994 14.8809L5.24647 14.1137C4.39166 13.7692 3.65564 13.0381 3.26383 12.0421L4.40881 11.6624L3.27017 10.5167C2.64195 9.88455 2.216 8.92338 2.17373 7.75417L2.95321 7.38439L2.36375 6.43352C2.00857 5.86056 1.78204 5.2079 1.78204 4.50881C1.78204 4.04799 1.85652 3.59359 1.99809 3.16849C3.82804 5.35554 6.32915 6.77497 9.04413 7.1334L10.2446 7.29189L10.1733 6.08312C10.1688 6.00703 10.1668 5.9263 10.1668 5.84081C10.1668 3.6438 11.7939 2 13.6186 2C14.4599 2 15.2888 2.3466 15.9253 2.98361L16.3341 3.39273L16.8925 3.24246Z" stroke="black" stroke-width="2"/>
</svg>
